<?xml version="1.0" standalone="no"?>
<!DOCTYPE svg PUBLIC "-//W3C//DTD SVG 20010904//EN"
 "http://www.w3.org/TR/2001/REC-SVG-20010904/DTD/svg10.dtd">
<svg version="1.0" xmlns="http://www.w3.org/2000/svg"
 width="48.000000pt" height="46.000000pt" viewBox="0 0 48.000000 46.000000"
 preserveAspectRatio="xMidYMid meet">

<g transform="translate(0.000000,46.000000) scale(0.100000,-0.100000)"
fill="#000000" stroke="none">
<path d="M135 437 c-27 -13 -60 -35 -72 -48 -55 -60 -77 -164 -51 -240 25 -74
99 -149 146 -149 18 0 22 6 22 30 0 26 -3 30 -29 30 -22 0 -37 10 -61 40 -36
45 -19 57 20 15 28 -30 66 -33 73 -6 3 15 -2 20 -24 25 -47 9 -69 39 -69 95 0
28 5 53 11 57 6 3 8 16 5 28 -9 36 8 52 39 38 14 -7 57 -12 95 -12 38 0 81 5
95 12 30 13 47 -1 43 -37 -1 -11 3 -30 10 -42 28 -51 1 -116 -56 -133 l-37
-12 3 -64 c3 -57 6 -64 24 -64 29 0 79 33 106 70 74 100 67 233 -18 318 -47
47 -87 65 -160 69 -54 3 -74 0 -115 -20z"/>
</g>
</svg>
