<?xml version="1.0" standalone="no"?>
<!DOCTYPE svg PUBLIC "-//W3C//DTD SVG 20010904//EN"
 "http://www.w3.org/TR/2001/REC-SVG-20010904/DTD/svg10.dtd">
<svg version="1.0" xmlns="http://www.w3.org/2000/svg"
 width="30.000000pt" height="30.000000pt" viewBox="0 0 30.000000 30.000000"
 preserveAspectRatio="xMidYMid meet">

<g transform="translate(0.000000,30.000000) scale(0.100000,-0.100000)"
fill="#000000" stroke-width="none" stroke="none">
<path d="M85 185 c33 -30 62 -54 65 -54 3 0 32 24 65 54 l60 54 -125 0 -125 1
60 -55z"/>
<path d="M10 148 l0 -72 40 39 c22 21 40 40 40 40 0 1 -18 16 -40 34 l-40 32
0 -73z"/>
<path d="M248 186 l-37 -33 39 -38 40 -39 0 72 c0 40 -1 72 -2 72 -2 -1 -20
-16 -40 -34z"/>
<path d="M65 100 l-39 -40 124 0 124 0 -39 40 c-35 36 -40 38 -55 25 -9 -8
-23 -15 -30 -15 -7 0 -21 7 -30 15 -15 13 -20 11 -55 -25z"/>
</g>
</svg>
