<?xml version="1.0" standalone="no"?>
<!DOCTYPE svg PUBLIC "-//W3C//DTD SVG 20010904//EN"
 "http://www.w3.org/TR/2001/REC-SVG-20010904/DTD/svg10.dtd">
<svg version="1.0" xmlns="http://www.w3.org/2000/svg"
 width="30.000000pt" height="30.000000pt" viewBox="0 0 30.000000 30.000000"
 preserveAspectRatio="xMidYMid meet">

<g transform="translate(0.000000,30.000000) scale(0.100000,-0.100000)"
fill="#000000" stroke="none">
<path d="M105 255 c-14 -13 -25 -33 -25 -43 0 -11 -9 -22 -20 -25 -19 -5 -21
-12 -18 -79 l3 -73 105 0 105 0 3 73 c3 67 1 74 -18 79 -11 3 -20 14 -20 25 0
25 -44 68 -70 68 -11 0 -32 -11 -45 -25z m79 -11 c9 -8 16 -24 16 -35 0 -16
-7 -19 -50 -19 -43 0 -50 3 -50 19 0 25 26 51 50 51 10 0 26 -7 34 -16z"/>
</g>
</svg>
